<svg width="343" height="188" viewBox="0 0 343 188" fill="none" xmlns="http://www.w3.org/2000/svg">
<path d="M172.905 56.7166C176.21 55.155 177.643 51.1959 175.853 48.0092C166.35 31.0953 151.807 17.4885 134.174 9.14075C114.541 -0.153746 92.2934 -2.35335 71.2208 2.91671C50.1482 8.18677 31.5549 20.6004 18.6089 38.0425C5.66283 55.4847 -0.834879 76.876 0.222863 98.5719C1.28061 120.268 9.82836 140.926 24.4097 157.026C38.991 173.126 58.7037 183.672 80.189 186.867C101.674 190.062 123.603 185.709 142.238 174.549C158.975 164.525 172.126 149.568 179.939 131.81C181.41 128.464 179.599 124.664 176.158 123.431V123.431C172.716 122.198 168.952 124.003 167.442 127.331C160.689 142.212 149.546 154.743 135.437 163.193C119.429 172.779 100.592 176.519 82.1361 173.774C63.6799 171.03 46.7464 161.97 34.2208 148.14C21.6952 134.31 14.3525 116.564 13.4439 97.9273C12.5353 79.2902 18.1169 60.9147 29.2378 45.9316C40.3586 30.9486 56.3306 20.285 74.4323 15.758C92.534 11.2309 111.645 13.1204 128.51 21.1045C143.374 28.1415 155.682 39.529 163.851 53.6824C165.678 56.8482 169.6 58.2781 172.905 56.7166V56.7166Z" fill="url(#paint0_angular_0_1)"/>
<path d="M29.8977 81.3001C27.2128 80.7682 24.5867 82.5129 24.2452 85.2286C22.4324 99.6425 25.1266 114.31 32.0228 127.189C39.7012 141.528 52.1139 152.76 67.1459 158.973C82.1778 165.186 98.899 165.995 114.46 161.261C130.022 156.528 143.46 146.545 152.486 133.014C161.513 119.483 165.568 103.241 163.961 87.0552C162.354 70.8694 155.185 55.7415 143.675 44.249C132.165 32.7565 117.026 25.6105 100.838 24.0286C86.2987 22.6079 71.721 25.7544 59.1091 32.9644C56.7329 34.3228 56.1307 37.4177 57.6531 39.6923V39.6923C59.1754 41.967 62.245 42.557 64.6367 41.2262C75.3296 35.2763 87.6177 32.6958 99.8739 33.8934C113.78 35.2523 126.784 41.3908 136.672 51.2631C146.559 61.1353 152.718 74.1304 154.098 88.0343C155.478 101.938 151.994 115.89 144.241 127.514C136.487 139.137 124.943 147.712 111.576 151.779C98.2084 155.845 83.8446 155.15 70.9319 149.813C58.0192 144.476 47.3565 134.827 40.7607 122.51C34.9473 111.654 32.61 99.3169 33.9964 87.1589C34.3064 84.4395 32.5826 81.832 29.8977 81.3001V81.3001Z" fill="url(#paint1_angular_0_1)"/>
<path d="M174.864 114V79.0909H184.545V114H174.864ZM179.727 74.5909C178.288 74.5909 177.053 74.1136 176.023 73.1591C175.008 72.1894 174.5 71.0303 174.5 69.6818C174.5 68.3485 175.008 67.2045 176.023 66.25C177.053 65.2803 178.288 64.7955 179.727 64.7955C181.167 64.7955 182.394 65.2803 183.409 66.25C184.439 67.2045 184.955 68.3485 184.955 69.6818C184.955 71.0303 184.439 72.1894 183.409 73.1591C182.394 74.1136 181.167 74.5909 179.727 74.5909ZM192.301 114V79.0909H201.688V85.1818H202.051C202.688 83.0152 203.756 81.3788 205.256 80.2727C206.756 79.1515 208.483 78.5909 210.438 78.5909C210.922 78.5909 211.445 78.6212 212.006 78.6818C212.566 78.7424 213.059 78.8258 213.483 78.9318V87.5227C213.028 87.3864 212.4 87.2652 211.597 87.1591C210.794 87.053 210.059 87 209.392 87C207.968 87 206.695 87.3106 205.574 87.9318C204.468 88.5379 203.589 89.3864 202.938 90.4773C202.301 91.5682 201.983 92.8258 201.983 94.25V114H192.301ZM232.636 114.682C229.061 114.682 225.985 113.924 223.409 112.409C220.848 110.879 218.879 108.758 217.5 106.045C216.136 103.333 215.455 100.212 215.455 96.6818C215.455 93.1061 216.144 89.9697 217.523 87.2727C218.917 84.5606 220.894 82.447 223.455 80.9318C226.015 79.4015 229.061 78.6364 232.591 78.6364C235.636 78.6364 238.303 79.1894 240.591 80.2955C242.879 81.4015 244.689 82.9545 246.023 84.9545C247.356 86.9545 248.091 89.303 248.227 92H239.091C238.833 90.2576 238.152 88.8561 237.045 87.7955C235.955 86.7197 234.523 86.1818 232.75 86.1818C231.25 86.1818 229.939 86.5909 228.818 87.4091C227.712 88.2121 226.848 89.3864 226.227 90.9318C225.606 92.4773 225.295 94.3485 225.295 96.5455C225.295 98.7727 225.598 100.667 226.205 102.227C226.826 103.788 227.697 104.977 228.818 105.795C229.939 106.614 231.25 107.023 232.75 107.023C233.856 107.023 234.848 106.795 235.727 106.341C236.621 105.886 237.356 105.227 237.932 104.364C238.523 103.485 238.909 102.432 239.091 101.205H248.227C248.076 103.871 247.348 106.22 246.045 108.25C244.758 110.265 242.977 111.841 240.705 112.977C238.432 114.114 235.742 114.682 232.636 114.682ZM264.108 67.4545V114H254.426V67.4545H264.108ZM287.773 114.682C284.182 114.682 281.091 113.955 278.5 112.5C275.924 111.03 273.939 108.955 272.545 106.273C271.152 103.576 270.455 100.386 270.455 96.7045C270.455 93.1136 271.152 89.9621 272.545 87.25C273.939 84.5379 275.902 82.4242 278.432 80.9091C280.977 79.3939 283.962 78.6364 287.386 78.6364C289.689 78.6364 291.833 79.0076 293.818 79.75C295.818 80.4773 297.561 81.5758 299.045 83.0455C300.545 84.5152 301.712 86.3636 302.545 88.5909C303.379 90.803 303.795 93.3939 303.795 96.3636V99.0227H274.318V93.0227H294.682C294.682 91.6288 294.379 90.3939 293.773 89.3182C293.167 88.2424 292.326 87.4015 291.25 86.7955C290.189 86.1742 288.955 85.8636 287.545 85.8636C286.076 85.8636 284.773 86.2045 283.636 86.8864C282.515 87.553 281.636 88.4545 281 89.5909C280.364 90.7121 280.038 91.9621 280.023 93.3409V99.0455C280.023 100.773 280.341 102.265 280.977 103.523C281.629 104.78 282.545 105.75 283.727 106.432C284.909 107.114 286.311 107.455 287.932 107.455C289.008 107.455 289.992 107.303 290.886 107C291.78 106.697 292.545 106.242 293.182 105.636C293.818 105.03 294.303 104.288 294.636 103.409L303.591 104C303.136 106.152 302.205 108.03 300.795 109.636C299.402 111.227 297.598 112.47 295.386 113.364C293.189 114.242 290.652 114.682 287.773 114.682ZM339.159 89.0455L330.295 89.5909C330.144 88.8333 329.818 88.1515 329.318 87.5455C328.818 86.9242 328.159 86.4318 327.341 86.0682C326.538 85.6894 325.576 85.5 324.455 85.5C322.955 85.5 321.689 85.8182 320.659 86.4545C319.629 87.0758 319.114 87.9091 319.114 88.9545C319.114 89.7879 319.447 90.4924 320.114 91.0682C320.78 91.6439 321.924 92.1061 323.545 92.4545L329.864 93.7273C333.258 94.4242 335.788 95.5455 337.455 97.0909C339.121 98.6364 339.955 100.667 339.955 103.182C339.955 105.47 339.28 107.477 337.932 109.205C336.598 110.932 334.765 112.28 332.432 113.25C330.114 114.205 327.439 114.682 324.409 114.682C319.788 114.682 316.106 113.72 313.364 111.795C310.636 109.856 309.038 107.22 308.568 103.886L318.091 103.386C318.379 104.795 319.076 105.871 320.182 106.614C321.288 107.341 322.705 107.705 324.432 107.705C326.129 107.705 327.492 107.379 328.523 106.727C329.568 106.061 330.098 105.205 330.114 104.159C330.098 103.28 329.727 102.561 329 102C328.273 101.424 327.152 100.985 325.636 100.682L319.591 99.4773C316.182 98.7955 313.644 97.6136 311.977 95.9318C310.326 94.25 309.5 92.1061 309.5 89.5C309.5 87.2576 310.106 85.3258 311.318 83.7045C312.545 82.0833 314.265 80.8333 316.477 79.9545C318.705 79.0758 321.311 78.6364 324.295 78.6364C328.705 78.6364 332.174 79.5682 334.705 81.4318C337.25 83.2955 338.735 85.8333 339.159 89.0455Z" fill="url(#paint2_linear_0_1)"/>
<defs>
<radialGradient id="paint0_angular_0_1" cx="0" cy="0" r="1" gradientUnits="userSpaceOnUse" gradientTransform="translate(93.9999 93.9999) rotate(-25.2912) scale(155.769 146.167)">
<stop stop-color="#EA8122"/>
<stop offset="1" stop-color="#F2B22B"/>
</radialGradient>
<radialGradient id="paint1_angular_0_1" cx="0" cy="0" r="1" gradientUnits="userSpaceOnUse" gradientTransform="translate(94.0005 93.9999) rotate(-168.794) scale(116.642 109.451)">
<stop stop-color="#90C1E0"/>
<stop offset="1" stop-color="#4291B2" stop-opacity="0.5"/>
</radialGradient>
<linearGradient id="paint2_linear_0_1" x1="178.5" y1="52" x2="339" y2="52" gradientUnits="userSpaceOnUse">
<stop stop-color="#EA8423"/>
<stop offset="1" stop-color="#F2B22A"/>
</linearGradient>
</defs>
</svg>
