<?xml version="1.0" encoding="utf-8"?>
<!-- Generator: Adobe Illustrator 26.2.1, SVG Export Plug-In . SVG Version: 6.00 Build 0)  -->
<svg version="1.1" id="Layer_1" xmlns="http://www.w3.org/2000/svg" xmlns:xlink="http://www.w3.org/1999/xlink" x="0px" y="0px"
	 viewBox="0 0 180.5 188" style="enable-background:new 0 0 180.5 188;" xml:space="preserve">
<style type="text/css">
	.st0{fill:url(#SVGID_1_);}
	.st1{fill:url(#SVGID_00000123406432588410583620000017159004899995759278_);}
</style>
<radialGradient id="SVGID_1_" cx="-126.1662" cy="512.4988" r="1.0005" gradientTransform="matrix(140.8383 -66.5475 -62.4453 -132.1566 49866.082 59428.125)" gradientUnits="userSpaceOnUse">
	<stop  offset="0" style="stop-color:#EA8122"/>
	<stop  offset="1" style="stop-color:#F2B22B"/>
</radialGradient>
<path class="st0" d="M172.9,56.7c3.3-1.6,4.7-5.5,2.9-8.7c-9.5-16.9-24-30.5-41.7-38.9c-19.6-9.3-41.9-11.5-63-6.2
	C50.1,8.2,31.6,20.6,18.6,38C5.7,55.5-0.8,76.9,0.2,98.6c1.1,21.7,9.6,42.4,24.2,58.5c14.6,16.1,34.3,26.6,55.8,29.8
	c21.5,3.2,43.4-1.2,62-12.3c16.7-10,29.9-25,37.7-42.7c1.5-3.3-0.3-7.1-3.8-8.4c-3.4-1.2-7.2,0.6-8.7,3.9
	c-6.8,14.9-17.9,27.4-32,35.9c-16,9.6-34.8,13.3-53.3,10.6C63.7,171,46.7,162,34.2,148.1s-19.9-31.6-20.8-50.2
	c-0.9-18.6,4.7-37,15.8-52c11.1-15,27.1-25.6,45.2-30.2c18.1-4.5,37.2-2.6,54.1,5.3c14.9,7,27.2,18.4,35.3,32.6
	C165.7,56.8,169.6,58.3,172.9,56.7z"/>
<radialGradient id="SVGID_00000039109275699925719550000008946733210496997807_" cx="-127.6051" cy="517.5968" r="1.0005" gradientTransform="matrix(-114.4182 -22.6679 -21.2704 107.3643 -3496.7939 -58369.9336)" gradientUnits="userSpaceOnUse">
	<stop  offset="0" style="stop-color:#90C1E0"/>
	<stop  offset="1" style="stop-color:#4291B2;stop-opacity:0.5"/>
</radialGradient>
<path style="fill:url(#SVGID_00000039109275699925719550000008946733210496997807_);" d="M29.9,81.3c-2.7-0.5-5.3,1.2-5.7,3.9
	c-1.8,14.4,0.9,29.1,7.8,42c7.7,14.3,20.1,25.6,35.1,31.8c15,6.2,31.8,7,47.3,2.3c15.6-4.7,29-14.7,38-28.2
	c9-13.5,13.1-29.8,11.5-46s-8.8-31.3-20.3-42.8C132.2,32.8,117,25.6,100.8,24c-14.5-1.4-29.1,1.7-41.7,8.9c-2.4,1.4-3,4.5-1.5,6.7
	c1.5,2.3,4.6,2.9,7,1.5c10.7-5.9,23-8.5,35.2-7.3c13.9,1.4,26.9,7.5,36.8,17.4c9.9,9.9,16,22.9,17.4,36.8
	c1.4,13.9-2.1,27.9-9.9,39.5c-7.8,11.6-19.3,20.2-32.7,24.3c-13.4,4.1-27.7,3.4-40.6-2c-12.9-5.3-23.6-15-30.2-27.3
	c-5.8-10.9-8.2-23.2-6.8-35.4C34.3,84.4,32.6,81.8,29.9,81.3z"/>
</svg>
