<svg width="154" height="154" viewBox="0 0 154 150" fill="none" xmlns="http://www.w3.org/2000/svg">
<path d="M125.605 50.0331C127.641 49.0711 128.524 46.6324 127.421 44.6694C121.568 34.2505 112.609 25.8687 101.747 20.7265C89.6537 15.0012 75.949 13.6462 62.9684 16.8926C49.9878 20.1389 38.5343 27.7857 30.5596 38.5299C22.5849 49.2742 18.5824 62.4512 19.2339 75.8157C19.8855 89.1803 25.1509 101.905 34.1329 111.823C43.1149 121.741 55.2579 128.237 68.4927 130.205C81.7276 132.173 95.2355 129.492 106.715 122.617C117.025 116.443 125.125 107.229 129.938 96.2904C130.845 94.2295 129.729 91.8882 127.609 91.1288C125.489 90.3695 123.171 91.4812 122.24 93.5315C118.08 102.698 111.217 110.417 102.526 115.622C92.6646 121.527 81.0611 123.831 69.6922 122.14C58.3232 120.449 47.8922 114.869 40.1765 106.35C32.4608 97.8302 27.9377 86.899 27.378 75.4187C26.8183 63.9383 30.2566 52.6191 37.107 43.3896C43.9574 34.1601 53.7961 27.5914 64.9466 24.8027C76.0972 22.0141 87.8697 23.178 98.2583 28.0962C107.415 32.4309 114.996 39.4456 120.028 48.164C121.154 50.1141 123.57 50.995 125.605 50.0331Z" fill="url(#paint0_angular_59_1871)"/>
<path d="M37.513 65.1762C35.8592 64.8486 34.2415 65.9233 34.0311 67.5962C32.9144 76.4751 34.574 85.5105 38.8221 93.4434C43.552 102.276 51.1981 109.195 60.4577 113.023C69.7174 116.85 80.0176 117.348 89.6033 114.432C99.189 111.516 107.467 105.367 113.027 97.0319C118.587 88.6968 121.085 78.6917 120.096 68.7213C119.106 58.751 114.69 49.4322 107.599 42.3529C100.509 35.2735 91.1838 30.8716 81.2119 29.8972C72.2558 29.0221 63.276 30.9603 55.5071 35.4016C54.0434 36.2384 53.6724 38.1448 54.6102 39.546C55.548 40.9472 57.4388 41.3106 58.9121 40.4908C65.4989 36.8258 73.0683 35.2362 80.6181 35.9739C89.1841 36.811 97.1948 40.5923 103.285 46.6735C109.376 52.7548 113.17 60.7597 114.02 69.3244C114.87 77.8892 112.724 86.4837 107.948 93.6436C103.172 100.804 96.0607 106.086 87.8264 108.591C79.5921 111.095 70.7441 110.668 62.7899 107.38C54.8358 104.092 48.2676 98.1485 44.2046 90.5611C40.6235 83.8738 39.1838 76.2745 40.0378 68.7852C40.2288 67.1101 39.1669 65.5039 37.513 65.1762Z" fill="url(#paint1_angular_59_1871)"/>
<defs>
<radialGradient id="paint0_angular_59_1871" cx="0" cy="0" r="1" gradientUnits="userSpaceOnUse" gradientTransform="translate(77.0002 72.9995) rotate(-25.2912) scale(95.9533 90.0384)">
<stop stop-color="#EA8122"/>
<stop offset="1" stop-color="#F2B22B"/>
</radialGradient>
<radialGradient id="paint1_angular_59_1871" cx="0" cy="0" r="1" gradientUnits="userSpaceOnUse" gradientTransform="translate(77.0001 72.9992) rotate(-168.794) scale(71.8507 67.4216)">
<stop stop-color="#4291B2" stop-opacity="0"/>
<stop offset="1" stop-color="#13293D" stop-opacity="0.8"/>
</radialGradient>
</defs>
</svg>
